<mxfile host="app.diagrams.net" modified="2024-01-15T07:13:53.941Z" agent="Mozilla/5.0 (Windows NT 10.0; Win64; x64) AppleWebKit/537.36 (KHTML, like Gecko) Chrome/120.0.0.0 Safari/537.36" etag="K97Mv8ZE28UZfY_rbVuO" version="22.1.18" type="github">
  <diagram name="Trang-1" id="obcCNmmp59PwncKkG2SI">
    <mxGraphModel dx="1358" dy="549" grid="1" gridSize="10" guides="1" tooltips="1" connect="1" arrows="1" fold="1" page="1" pageScale="1" pageWidth="827" pageHeight="1169" math="0" shadow="0">
      <root>
        <mxCell id="0" />
        <mxCell id="1" parent="0" />
        <mxCell id="uYHZnF8rjSlXVwT12AOy-2" value="PLC ON" style="text;html=1;strokeColor=none;fillColor=none;align=center;verticalAlign=middle;whiteSpace=wrap;rounded=0;" vertex="1" parent="1">
          <mxGeometry x="550" y="395" width="60" height="30" as="geometry" />
        </mxCell>
        <mxCell id="uYHZnF8rjSlXVwT12AOy-12" style="edgeStyle=orthogonalEdgeStyle;rounded=0;orthogonalLoop=1;jettySize=auto;html=1;exitX=0.5;exitY=1;exitDx=0;exitDy=0;entryX=0.5;entryY=0;entryDx=0;entryDy=0;" edge="1" parent="1" source="uYHZnF8rjSlXVwT12AOy-9" target="uYHZnF8rjSlXVwT12AOy-11">
          <mxGeometry relative="1" as="geometry" />
        </mxCell>
        <mxCell id="uYHZnF8rjSlXVwT12AOy-9" value="Tính toán xung DBD, DKT, KCD, vận tốc(khung), vận tốc, xung dời của băng tải&amp;nbsp;" style="shape=hexagon;perimeter=hexagonPerimeter2;whiteSpace=wrap;html=1;fixedSize=1;" vertex="1" parent="1">
          <mxGeometry x="370" y="370" width="170" height="80" as="geometry" />
        </mxCell>
        <mxCell id="uYHZnF8rjSlXVwT12AOy-11" value="- Tính toán từ xung ra giá trị hiển thị của khung và băng tải.&lt;br&gt;- Chạy jog khung và lấy DBD, DKT&lt;br&gt;" style="shape=hexagon;perimeter=hexagonPerimeter2;whiteSpace=wrap;html=1;fixedSize=1;" vertex="1" parent="1">
          <mxGeometry x="347" y="500" width="215" height="80" as="geometry" />
        </mxCell>
        <mxCell id="uYHZnF8rjSlXVwT12AOy-13" value="chạy về home rôi chạy ra DBD" style="shape=hexagon;perimeter=hexagonPerimeter2;whiteSpace=wrap;html=1;fixedSize=1;" vertex="1" parent="1">
          <mxGeometry x="360" y="630" width="185.5" height="80" as="geometry" />
        </mxCell>
        <mxCell id="uYHZnF8rjSlXVwT12AOy-14" value="JOG" style="text;html=1;strokeColor=none;fillColor=none;align=center;verticalAlign=middle;whiteSpace=wrap;rounded=0;" vertex="1" parent="1">
          <mxGeometry x="555.5" y="520" width="60" height="30" as="geometry" />
        </mxCell>
        <mxCell id="uYHZnF8rjSlXVwT12AOy-15" value="chạy về home khung&lt;br&gt;" style="text;html=1;strokeColor=none;fillColor=none;align=center;verticalAlign=middle;whiteSpace=wrap;rounded=0;" vertex="1" parent="1">
          <mxGeometry x="570" y="655" width="90" height="30" as="geometry" />
        </mxCell>
        <mxCell id="uYHZnF8rjSlXVwT12AOy-16" value="check pass để mở tính năng" style="shape=hexagon;perimeter=hexagonPerimeter2;whiteSpace=wrap;html=1;fixedSize=1;" vertex="1" parent="1">
          <mxGeometry x="347" y="750" width="225" height="80" as="geometry" />
        </mxCell>
        <mxCell id="uYHZnF8rjSlXVwT12AOy-17" value="Reset mặc định" style="shape=hexagon;perimeter=hexagonPerimeter2;whiteSpace=wrap;html=1;fixedSize=1;" vertex="1" parent="1">
          <mxGeometry x="398.75" y="850" width="120" height="60" as="geometry" />
        </mxCell>
        <mxCell id="uYHZnF8rjSlXVwT12AOy-18" value="set giới hạn servo phải giữ" style="shape=hexagon;perimeter=hexagonPerimeter2;whiteSpace=wrap;html=1;fixedSize=1;" vertex="1" parent="1">
          <mxGeometry x="400.25" y="935" width="120" height="80" as="geometry" />
        </mxCell>
        <mxCell id="uYHZnF8rjSlXVwT12AOy-19" value="pass" style="text;html=1;strokeColor=none;fillColor=none;align=center;verticalAlign=middle;whiteSpace=wrap;rounded=0;" vertex="1" parent="1">
          <mxGeometry x="600" y="780" width="60" height="30" as="geometry" />
        </mxCell>
        <mxCell id="uYHZnF8rjSlXVwT12AOy-20" value="Reset mặc định" style="text;html=1;strokeColor=none;fillColor=none;align=center;verticalAlign=middle;whiteSpace=wrap;rounded=0;" vertex="1" parent="1">
          <mxGeometry x="525.5" y="875" width="74.5" height="50" as="geometry" />
        </mxCell>
        <mxCell id="uYHZnF8rjSlXVwT12AOy-21" value="Limit" style="text;html=1;strokeColor=none;fillColor=none;align=center;verticalAlign=middle;whiteSpace=wrap;rounded=0;" vertex="1" parent="1">
          <mxGeometry x="532.75" y="985" width="60" height="30" as="geometry" />
        </mxCell>
        <mxCell id="uYHZnF8rjSlXVwT12AOy-22" value="Khai bao S, Y" style="shape=hexagon;perimeter=hexagonPerimeter2;whiteSpace=wrap;html=1;fixedSize=1;" vertex="1" parent="1">
          <mxGeometry x="400.25" y="1040" width="120" height="80" as="geometry" />
        </mxCell>
        <mxCell id="uYHZnF8rjSlXVwT12AOy-24" value="Khai báo S, Y" style="text;html=1;strokeColor=none;fillColor=none;align=center;verticalAlign=middle;whiteSpace=wrap;rounded=0;" vertex="1" parent="1">
          <mxGeometry x="540" y="1065" width="60" height="30" as="geometry" />
        </mxCell>
      </root>
    </mxGraphModel>
  </diagram>
</mxfile>
